<?xml version="1.0" standalone="no"?>
<!DOCTYPE svg PUBLIC "-//W3C//DTD SVG 20010904//EN"
 "http://www.w3.org/TR/2001/REC-SVG-20010904/DTD/svg10.dtd">
<svg version="1.0" xmlns="http://www.w3.org/2000/svg"
 width="600.000000pt" height="600.000000pt" viewBox="0 0 600.000000 600.000000"
 preserveAspectRatio="xMidYMid meet">

<g transform="translate(0.000000,600.000000) scale(0.100000,-0.100000)"
fill="#000000" stroke="none">
<path d="M2020 3486 c-67 -19 -132 -50 -197 -94 -84 -58 -179 -147 -191 -179
-12 -36 1 -71 30 -82 26 -9 32 -8 106 26 28 13 94 38 145 55 83 28 104 32 212
32 112 0 127 -3 230 -37 60 -21 124 -46 143 -57 37 -22 92 -26 110 -8 7 7 12
28 12 47 0 31 -9 44 -65 98 -182 174 -371 244 -535 199z"/>
<path d="M3770 3486 c-110 -31 -218 -97 -325 -199 -56 -54 -65 -67 -65 -98 0
-67 46 -77 144 -30 34 16 99 41 146 56 73 24 101 28 200 29 127 0 225 -24 356
-85 36 -17 77 -31 91 -31 51 0 72 56 39 107 -9 13 -53 56 -98 95 -167 142
-340 197 -488 156z"/>
<path d="M1876 2399 c-37 -29 -33 -59 16 -121 198 -250 489 -430 808 -499 151
-33 448 -33 597 -1 272 59 495 177 688 367 103 101 165 180 165 210 0 23 -41
65 -65 65 -6 0 -54 -32 -106 -71 -569 -428 -1243 -462 -1828 -92 -29 19 -92
63 -139 99 -47 35 -91 64 -97 64 -7 0 -24 -9 -39 -21z"/>
</g>
</svg>
